<?xml version="1.0" encoding="UTF-8"?>
<svg id="Livello_2" data-name="Livello 2" xmlns="http://www.w3.org/2000/svg" viewBox="0 0 733.85 184.06">
  <defs>
    <style>
      .cls-1 {
        fill: #ffce00;
      }
    </style>
  </defs>
  <g id="Livello_1-2" data-name="Livello 1">
    <g>
      <g>
        <path class="cls-1" d="M105.07,68.62l.86,89.94-42.2-.69-1.9-89.25-27.33.52-1.56-41.16,93.57-1.73,2.59,42.89-24.04-.52Z"/>
        <path class="cls-1" d="M137.93,60.14l-1.38-33.38c22.48.35,45.66.86,66.76,1.04l1.21,32c-26.29,0-39.78.69-66.59.35ZM141.39,158.73c-.86-22.83-2.42-62.78-4.15-87.86,26.98,0,39.61,0,66.07-.69,2.59,22.14,7.26,65.38,9.34,87.17l-71.26,1.38Z"/>
        <path class="cls-1" d="M272.84,107.88l2.08,49.47-50.85,1.04-7.78-130.93,94.78-1.21,1.21,31.65-48.6-1.04,2.08,27.67,46.7-.86.69,24.91-40.3-.69Z"/>
        <path class="cls-1" d="M426.42,157.34l-86.65.87c-4.67-7.09-9.69-14.01-15.74-21.27.35-31.31.52-62.27-.17-91.15,7.26-6.92,15.05-13.84,20.41-18.51l74.2-.35,17.12,17.81,4.15,89.59-13.32,23ZM406.53,54.43l-35.8.86c1.04,23.52,1.38,48.26,1.21,70.39l38.05-1.73-3.46-69.53Z"/>
        <path class="cls-1" d="M548.71,158.9l-95.82-1.73-3.11-130.58c20.24.17,76.97.35,97.2.52,5.36,3.81,13.66,9.86,16.78,11.93,1.56,35.28,1.73,71.95,4.15,107.75-4.84,2.94-13.32,8.82-19.2,12.11ZM531.58,51.84l-52.23.35c.35,17.81,1.38,44.97,2.59,63.3,8.13.17,42.03-.69,51.89-1.56.17-18.51-.69-40.47-2.25-62.09Z"/>
        <path class="cls-1" d="M579.32,158.73c.17-42.38-.69-90.28-1.73-130.76l104.47-1.38,2.94,46.87-15.74,8.13,25.94,6.23,3.11,69.53-119,1.38ZM645.39,51.15l-34.25,1.73,1.56,23.52,33.9-1.38-1.21-23.87ZM658.01,93l-43.41,1.38,1.38,31.48,44.45-.17-2.42-32.69Z"/>
      </g>
      <path class="cls-1" d="M733.85,184.06H0V0h733.85v184.06ZM9,175.06h715.85V9H9v166.06Z"/>
    </g>
  </g>
</svg>