<?xml version="1.0" encoding="UTF-8"?>
<svg id="Livello_2" xmlns="http://www.w3.org/2000/svg" version="1.1" viewBox="0 0 950.5 246.2">
  <!-- Generator: Adobe Illustrator 29.8.1, SVG Export Plug-In . SVG Version: 2.1.1 Build 2)  -->
  <defs>
    <style>
      .st0 {
        isolation: isolate;
      }

      .st1 {
        fill: #ffb700;
      }
    </style>
  </defs>
  <g id="Livello_1-2">
    <g class="st0">
      <g class="st0">
        <path class="st1" d="M117.2,193l-.6-2.1-.6.4v.9l-1.7,1.7v3h-5.5v-2.1h-.9l-1.1-4.3-1.9.9v-1.3l-.9-.9,1.9-1.1-1.1-1.5-2.8,3,1.1,1.3v5.3h-3.8v-5.3h-1.5l-.9,2.1-1.7,1.7-.9,1.5h-9.4l-.9-.9-3.8.9h-3.8v-4l.6-1.3-1.5-.9-.6-1.7-.9,2.6v5.3h-3.8v-1.5l.6-1.7-1.1-1.3,1.1-.9-2.3-2.6v-3h1.3l-1.3-2.6-2.6,2.6-1.3.6v2.3h2.1l.9,1.7.9.9-2.1.9-1.1,2.1,1.1,2.3h-11.3v-1.5h.9v-2.6l.9-3-.9-1.7v-.9h-1.7l-1.5,5.5v3l-3.8-2.6-1.5-5.1-2.6-3v-6.4h2.8l1.9,3.2.9-.9v-3.2l.9-.6v-1.7l-1.7-.6.9-1.7v-2.3h3.2l.6-.9,4.7-1.7.9.9h12.6l3.8-3.6.9-23v-20.2h1.9l-1.1-3.4v-26.6l-3-6.2h-4.7l-.9-.9-4,2.3-4.7,4.7.6,1.7v1.3l.9.9h-2.3l-1.3-1.3-1.1,3.8h1.7l1.1-1.3,1.9,2.1v7h-2.3l1.5-3.2-3-3.2h-.9l1.1,2.1-1.7,1.7-.9-3.8h-2.3v7.9l-1.5,4v1.5h-1.7v.6l1.7.9,2.1,2.6v-6.4h1.7l1.5,1.5,1.7-.6h1.5v.6l-3.2,1.5v4.7l-6.2,3.4h-4.7v-.9l5.5-.9-4-1.7-1.5.9v-3l-1.7.9-.9,1.3-.9.9.9.9v.9h-3l-4.3-2.3-5.3-6.8v-16.2l.9-4.7v-3l.9-5.5-.9-1.5v-13.6l.9-1.3v-1.7l.6-.9v-1.5h2.6v-3.2l1.5-.6.6,4.7,1.7-4-.9-1.5,1.7-.9h12.6l5.5.9-1.3,1.3,2.8,4.3-2.3,2.3h.9v7h2.1l1.1-6.4,1.5-1.5,3-.9.9,1.7v3.8l1.7,1.7v-4.7l.9-1.7-.9-.9.9-4.7h2.6l-1.3,2.3,2.3,2.1-1.7,9.6,1.9.9-3,1.1,1.3,5.3v2.3l3.2.9.9-.9-.9-1.5h-.6v-4.7l1.9-1.3-1.3-1.3v-4.7l1.5-.9v-3.8h-1.5v-2.3l1.1-2.1-1.1-1.1h7l.9.9.9-.9h10v12.8l1.7,1.3h.9v-3l-1.1-2.8,1.1-4.3v-3.2h2.3v1.5h1.1l1.7-3.4,11.3,1.1v1.7l-1.3,1.1,1.3,1.3h1.7v-4h5.5l.6,2.3h.9l.6-2.3h7.9v4.7l1.7,1.7v2.1h1.5v-3l-1.9-1.9,1.3-1.3.6-2.3h14.9v8.5l-1.5,1.7v1.7l1.5-.9v2.3h.9v-.6l3.2-3.4-1.7-2.1v-7.4l5.3,1.5-1.3,1.1.9,5.3,2.1-1.3v-1.7l-1.5-.6,2.8-2.8,2.1,2.8v.6l1.7,2.1-1.1,3.4-2.3,3.2,3-2.1v5.3l-1.5-2.8-2.8,1.3,2.1,6.2v3.8l-.9,1.7v2.3l-1.3,1.3,4.3,1.1v8.7l-.6.6v2.3l-1.5,1.7.9.6,1.3-.6.9.6v6l-2.8,7.2-2.8,2.6-4.7-3-.6,1.3v2.6l1.5,1.5-1.9.9-1.9-.9v1.5h-3.6l-1.9-3v-3.2h-.9l-.6-.6h-1.3l2.8,5.1-2.3,1.1-5.1-1.3-1.3-3.6h-1.9l-1.9-6.2v-23.4l-4.9-2.6-6.2.9-3,3-2.3,15.1v33.8l-2.6,2.1,1.7.9v25.3l3,3h4l-2.1,5.5h1.3v-1.5h2.3v-4h6.4l2.3,2.3,2.6-1.7,2.8,1.3-1.5,1.3h-2.3l-.6,1.5-.9.9-.9,3.2,1.7-.9.6.9.9-1.7.6-.6v-1.7h1.7l.9,13.2-1.7,6.6-.9.9v1.3h-2.1l-1.7.9h-14.3v-4.7ZM32.5,108.3h.9v-.9l-.9.9ZM34,98.9l3.2-1.1v-7l.9-1.5.6,2.3h.9l.9-1.5.9-.9v-2.3l-.9-.9v-1.1l2.6-1.3-.9-.6v-1.7l-1.7-1.5-.9-1.7h-1.3l-1.1,7.2-2.3,2.3v4.7l-.9,1.7v4.7ZM35.7,110.6l2.3-1.3v-1.1h-.9v-1.7l-1.5-.6-.9.6v3.2l.9.9ZM37.2,72.1l.9-.6v-4.3l-.9,4.9ZM39.6,98.1l.9-.9h-1.7l.9.9ZM42.1,103.6v-2.6h-2.6l2.6,2.6ZM41.3,72.1l.9-3.2v-3h-1.9l1.1,6.2ZM42.1,112.1v-2.3h-1.7v.9l1.7,1.5ZM41.3,61.9l1.7-1.5-1.7.6v.9ZM50.6,84.7l2.3-.9.9.9.9-3.8-2.1-2.1,1.3-1.1.9-4.9h1.5v-.6l-1.5-1.3,1.5-4.3-1.7.6v-.6l4-3.8v-.9l-2.6,2.6-3.6-1.3v1.1l.6.9v4.7l-3.2,1.7.9-3.4-.9-.9.9-1.3.9-3.2,1.5-.9,2.3-2.3v-1.5h-.9l-1.5-.9-1.5.9-6,1.1,1.3,1.3v.6l2.6,1.3-1.1,1.1.6.9v1.7h-.6l-.9.9,1.1,3.6-.9,1.1-.9,2.1-.9.9.9.9.9,1.5h2.1l2.6.9-.9.6v1.7h-1.7v-1.7h-1.3l-1.3,3.2,1.7.9v.9l1.7,1.5ZM46.8,91.7l.9-.9h-.9v.9ZM47.6,93.4h2.1l1.7-1.7,2.3-.9v-3.8h-3.2l-.9.9h-.9v.9l.9,1.7v1.3l-2.1,1.7ZM48.3,98.9l1.1-1.3-1.1-1.3v2.6ZM48.9,108.9l1.7-1.5v-3.2h-1.7v.9l.9.9-.9.6v2.3ZM50.6,73.6v.9l-.9-.9h.9ZM49.8,117h1.7v-.9l-.9-.9-.9.9v.9ZM57.6,90.9h.9v-1.5l-1.5.9.6.6ZM58.5,190.8l2.3-2.6v-3.8h-1.5l-2.1,1.9,1.3,2.8v1.7ZM57.6,87h.9l1.5-.9-.6-.6-1.7,1.5ZM58.5,181.9h2.3l-.9-.6,1.5-1.5-1.5-1.7v-3.2l-2.3-1.1v1.1l.9.9v6.2ZM59.3,78.3l1.1-1.1-1.1-.9-1.3.9,1.3,1.1ZM59.3,81.5l1.5-3.2-1.5,1.7v1.5ZM63.2,81.5l1.7-1.5v-1.7l-4,1.1,2.3,2.1ZM62.3,58.1h3.8v4.7h-3.8v-4.7ZM63.2,181.3v-.9h-.9l.9.9ZM70.4,73.6l-3.4-1.9v1.9h3.4ZM67,80.9l.9.6.9-1.5,1.7-1.7v-1.5h-1.7v1.5l-1.7.9v1.7ZM68.7,176.6l1.1-3.8-1.9-1.7-.9.9v1.5l.9.9.9,2.3ZM74.2,185.3h.9v-.9h-.9v.9ZM79.3,77.5l1.1-4.7-1.5.9-.9,2.6,1.3,1.3ZM79.8,163.2h1.5v-3.2h-1.5v3.2ZM83.6,68.1h.9l2.3-2.1.9-1.7-2.6,1.3v-2.8h-1.5l-.9,1.5.9,2.3v1.5ZM82.7,108.3h1.7l2.3-2.3v-4h-1.7l-.9,3,.9,1.1-2.3,1.5v.9ZM83.6,72.8l.9-.6h-.9v.6ZM83.6,77.7h1.5v-.9h-.6l-.9.9ZM87.6,85.5h.6l2.3-2.3-.9-.9-2.1,1.1v2.1ZM88.3,102.8v-.9l-.6-.9v.9l.6.9ZM88.3,80.9l.6-1.7-.6.9v.9ZM89.8,130.2h2.6l-3.6-1.3,1.1,1.3ZM90.6,66l.9-2.6h-.9l-1.3,1.3,1.3,1.3ZM91.5,79.2l1.7-1.5v-5.5l-.9-4.9-1.7.9h-1.1l1.7,6.2-1.5,2.6.9.9.9,1.5ZM91.5,174.9l1.7-.6h-.9l-.9.6ZM94.4,111.5l.9-.9v-.9l-.9,1.7ZM97.9,177.2l1.1-2.1-1.9-1.7-.9.9.9,1.5v.9l.9.6ZM97,180.4h.9l.6-2.3-2.3.9.9,1.5ZM100.8,124.7h1.7v-2.3l-.9-.6-1.7,1.5.9,1.5ZM102.7,90.4l1.3-1.1,2.3-.6-.9-3.2-.6-.9v-.9l-1.1-2.8-1.7,1.7,1.1,1.9-1.5,4.7,1.1,1.1ZM103.2,168.1h1.7v-1.7h-1.7v1.7ZM104.9,74.5h.6l.9-.9h-.9l-.6.9ZM104.9,112.1h.6v-.6h-.6v.6ZM106.4,65.5l3.6-2.3-2.3-3-2.3,1.1,1.1,4.3ZM107.2,71.5v-2.6l.6-1.7h-1.3l-1.3,4.3h1.9ZM107.2,115.3v-1.7h-1.7l1.7,1.7ZM106.4,78.3l.9-.6v-3.2l-.9.9v3ZM106.4,123.2l.9-1.5h-.9v1.5ZM110.4,123.8l1.3-.6-1.3-1.5v-.9l-2.1,1.1,2.1,1.9ZM110.4,132.6l-.9-1.5h-.9v1.5h1.7ZM109.6,192.1l1.5-2.1-1.5-.9-.9-1.7v3.8l.9.9ZM109.6,117h.9l1.3-1.7v-2.3l-2.1,1.1v3ZM110.4,109.8l.6-.9v-.6l-.6.6v.9ZM113.4,183.6v-1.7h-3l.6.9,2.3.9ZM111,97.2l.6-.9h-.6v.9ZM113.6,74.7l2.8-3.8-3.2-1.5-1.7,3.4h1.1l1.1,1.9ZM113.4,135.7l.9-3.2-1.7.9h-.9v.9l1.7,1.5ZM113.4,83.8h1.7l.9-2.3h-2.6l-1.3,1.3,1.3,1.1ZM112.5,158.5h.9v-.9h-.9v.9ZM116.6,181.9h.6l2.8-1.7-1.1-2.1-1.7,3.2-.6.6ZM122.1,71.1v-8.3l-2.3,4.5-.9.9v1.3l3.2,1.7ZM119.8,85.5h.9l1.5-3.2v-7.9l-.9-1.7-1.5.9v7.2l-.9,2.3.9,2.3ZM127.6,185.3h3v-.9h-2.3l-.6.9ZM132.3,79.6v-6.8l-1.7-.6-2.3,2.3,1.7,2.3-.9.9,3.2,1.9ZM128.3,196.2l2.3-1.5h-1.5l-.9,1.5ZM129.1,190.8h.9l-.9-.9v.9ZM133.2,195.5h.6l1.5-2.6-1.5-5.5-.6.9v1.7l-1.7,1.3.9,1.7.9,2.6ZM132.3,184.5h1.5v-1.7l-1.5,1.7ZM137.8,77.7h.9l-.9-.9h-1.7l1.7.9ZM141.7,174.2l1.7,4.7v11.1l-1.7,3-1.7,1.7v-20.4h1.7ZM142.5,64.3l.9-.9v-3h-2.6l.9,1.5.9,2.3ZM150.4,87.9v-11.1l-3.6-3.6-1.3,1.3v.9l-1.5,2.3h3.2v2.3l-3.8,1.5h-.9v2.3l1.9,1.9,1.9-1.1-1.3,2.3h3.6l1.7.9ZM144,91.7v.9l.9-1.7.6-.6h-1.5l-1.5.6,1.5.9ZM142.5,106h.9l-.9-.9v.9ZM144.9,94.7h2.3l-.9-.4h-1.5v.4ZM146.4,99.6h2.3l-1.5-1.5h-1.7l.9.9v.6ZM147.2,81.5l.9.9,2.1,1.1-1.5,1.3-1.5-1.5v-1.7ZM148.1,111.5h1.5v-4.9h-1.5v4.9ZM155.7,89.6l-1.7-4.9h-1.7l1.1,2.3v1.7l2.3.9ZM153.4,82.3l2.6-.9.6-1.5-3.2.9v1.5ZM155.1,72.8l1.1-2.8-1.1-1.1-.9,2.6.9,1.3ZM155.3,76.4l1.3-2.8-1.5.9h-.9v.9l1.1,1.1ZM158.1,87.9l.9-.9h-1.5l.6.9ZM157.4,110.6h.6v-1.7l.9-.6h-1.5v2.3ZM161.5,108.3h.6v-2.3h-.6v2.3ZM179.3,196.8l-2.3-1.3v-4.7l.9-2.6v-1.7l1.5-.6-.6-3.2v-7.9h-2.6l-.6.9,1.9,1.9-1.3,5.7.9,1.1-1.5,2.1-.9,2.6h-2.3v-4.7l.9-1.7-1.1-3,1.7-5.5h1.7l2.3-2.3.9.6h.6v-2.3h7v.9h1.3l1.5,3,3.6-3.8h1.5v2.3l1.7,1.7,1.5-.9v-4h3.2v5.5h1.5v-2.6l3-1.5-4-4,1.1-1.3v-1.7l-1.5-1.3v-27.7l2.3-.6v-2.6l-2.3-1.1v-8.9l-.9-32.3-1.5-1.5h-4.7l-8.7,2.1-6.4-1.5-3.8-3.8v-2.3l.9-.9v-2.8l-3.2-1.5v-2.8h1.5l1.7,1.7v-3.4h-3.2v-3h1.5l3.2,1.7v10h2.3v-7.9l-.9-2.8,1.7-2.8h3.2l1.5-.9-1.5-.6v-2.3l-3.2,3h-1.5l1.5-3-.9-1.5,4-1.7h7.7l3.2,1.1.9-1.7v2.3l-.9,2.3v4.7l-1.5.9,1.5,3,.9-.9.9-5.5,1.5,1.7.9,3.2.6-2.3v-5.5l-.6-.9-.9,1.7h-.9l-.9-2.1,3.2-1.1,1.5-1.3,6.2,1.5-1.3,1.3,1.7,1.7-2.8,1.3,1.3,4-1.1,1.1v4.7h2.6v-2.6l1.3-.9-1.3-1.3v-4.3l1.7-3.4,2.1,2.1,1.3-1.5-3.8-1.7,3.4-.9h5.5l-1.1,10.2h4l-.9-.6v-5.5l.9-1.7v-2.3h3.2v.9l-.9.6h2.3v4.7l.9,1.7.6-3.8,1.3-1.3-1.3-1.3.9-1.5h3.2v9.6l-1.3,2.6,1.9,1.3.9-1.7-.9-.9,1.7-1.3v-2.3l3.8-1.1-1.3-.9-.9-2.1-2.6-2.3,1.3-2.3h6.8v7.2l2.1,1.3v-2.3h1.7v-3.2l-1.7,1.7v-5.5h8.9l1.5,7.7.6,2.6v.9h.6v-6.4l1.7-1.5-1.7-1.7v-.6h1.7l.9.6h4.9l2.8,4h1.3l2.1,3.8v9.4l-1.7,4.9-2.3,2.3-1.5-.9v-.9l-.9-.6v-1.7l-.9-.6-.9,1.5v4.7h-3l-2.6-.9-.6.9h-12.6l-2.3,1.7v45.5l-.9-.9h-2.8l-1.1,3v2.6h2.6l1.9-3.8,1.3,6.6-1.1,1.1-3.8.9-1.7,1.5h-.9v1.5l1.7.9,4.7-2.3v9.4l.9.9v17.2l1.1,1.3-1.1,1.9v9.6l-1.1,4,1.9-1.9.6.9,1.9-6.2-1.1-2.3v-7.2l-1.1-1.9,1.1-2.1h12.3l1.7,1.7,1.7-1.7h2.1v.9l-.9.9,1.7,1.7v14.7l-1.7,1.7v3.4l3.4-.9,1.5-3.4-.6-1.5v-8.7l3-2.3.9,1.7,1.1-2.3,1.5,6-2.6,1.7.9,2.6v3l-.9-2.1h-1.7v6l-2.1,2.6-.9-1.7h-.9l-1.1,3.2-3.6.9v-1.5l.9-1.7-1.9-2.6-2.1.9-.6,2.6-1.7,1.7-.9,1.3-2.3-.6.9-.6v-6.4l-.9-.9.9-2.8-1.1-3.2,1.7-3.4,1.3-1.3-1.9-1.9,1.5-.9v-.6h-3.8l1.1.9-1.1,3-1.7,2.3h1.7v2.3l-1.7,4.7h1.7v8.7h-4.7l3.4-4.5-3.2-3-1.9,7.7-5.3-.9v-4.3l.9-.4-2.6-.9v-2.6h.9l.9-2.1,1.1-1.3-1.1-1.3.9-.9v-.6l-2.6,2.3h-.9l-1.5,1.7h2.3v.9l-2.3,1.3.6,1.7v6.4h-3v-2.6l-.9-.9v-2.1l-1.9-2.1,1.9-1.9v-1.5l-1.5-1.7-2.3,2.6-1.7.6v1.5l-.6.9h3.2l-.9,1.7v.9l-.9,2.1v2.6h-12.6l-6.4,1.3h-2.1l-7.7,1.1-2.6-2.1-.9,1.9h-8.7l-1.5-.9h-.9ZM181.7,82.3l2.6-4.7h1.3v-1.5h.9l.9.6,1.7-3.2v-.9l.9-.6v-1.5l-.9-.9v-1.7l-.9-2.1-1.7.6-.9,1.5,2.1,2.1-2.1,1.9h-3.4l2.1,4-2.6,1.1v5.1ZM184.2,62.8v-.9h-.9l.9.9ZM186.4,177.2l1.1-2.1-1.9-1.7h-.6v3.8h1.5ZM185.5,190l.9-1.7h-1.5v.9l.6.9ZM184.9,196.8h.6l.9-1.3.9,1.3v-5.5h-2.3v5.5ZM189.8,181.9h.6l1.9-2.6-1.3-1.3v-1.5h-2.1l.9,5.3ZM189.8,74.5h1.3l-.6-.9-.6.9ZM189.8,189.1l.6-2.6v-1.3l-.6,2.1v1.7ZM190.4,68.1h.6v-.9l-.6.9ZM192.7,79.2h.9v-.9h-.9v.9ZM195.1,81.5h1.5v-3.8h-1.5v3.8ZM201.2,185.1l.9-3.2-1.9-.9,1.3-3.8h-1.7l-1.5,4.7,3,3.2ZM198.9,191.3h.9v-.4h-.9v.4ZM202.1,161.7l.9-.9-.9-1.7v2.6ZM204.4,192.1h1.1l-1.1-3.8v-.9h-1.5v1.7l1.5,3ZM204.4,195.5l.9-.9-.9-.9-1.5.9,1.5.9ZM207,181.3l.6-.9v-3.2l.6-.6v-1.7h-.6l-2.6,2.8,1.9,3.6ZM205.3,176.6l2.1-4.3-1.3-1.3v1.5l-.9,1.7v2.3ZM209.1,74.5h2.6v-6.4h-.9l-1.7,4.7v1.7ZM210,169.1l4.7-2.8-3-3.2.9-.6-.9-.9v-4.7l2.1-2.6v-2.3h-4.7v7l.9.9v9.1ZM210.8,156.2h-.9l.9-.9v.9ZM210.8,109.8l2.3-2.3,3.2-1.5,1.5-2.3.9-.9-1.7-.9-3.8,2.1v-4.5h-2.3v10.2ZM213.8,159.1l1.5-1.3-2.6-1.1,1.1,2.3ZM214.6,98.1h.9v-.9l-.9.9ZM216.3,177.2l1.5-3h-3.2v1.5l1.7,1.5ZM215.5,123.8l.9-.6-.9-1.5v2.1ZM215.5,181.9l1.5.9.9-1.5h2.3v-.9l-1.9-.9-1.3.9v-2.3l-1.5,1.7v2.1ZM216.3,77.7h1.5l1.5-1.5h-3v1.5ZM217,168.5l2.3-2.1h-2.3v2.1ZM217.8,171.1v-.9h-.9l.9.9ZM221,98.9v-1.7h-1.7v.9l1.7.9ZM224.2,173.4h.6l.9-2.3,1.1-1.3-1.9-1.7h-2.3l.9.4v1.7l.9.9v2.3ZM225.7,74.5l1.5-.9-2.8-1.7-1.1.9,2.3,1.7ZM223.4,137.2h.9v-.9h-.9v.9ZM226.3,179.8v-1.7l-.6.9.6.9ZM231,138.9l1.1-1.1-1.5-4.5-.9,3-1.1,1.1,2.3,1.5ZM229.7,108.9l.6-.6h-.6v.6ZM231,160.8l.9-1.7-.9-1.5h-.6v1.5l-.6.9,1.3.9ZM230.4,79.2l.6-1.5-.6.6v.9ZM231.9,99.6v-.6l-.9-.9-.6.9,1.5.6ZM231,101.9h.9l-.9-.9v.9ZM231.9,156.2l1.1-3.2h-1.9v2.3l.9.9ZM231.9,181.3h1.7l1.7-1.5h.4v-.9l-.4-.9v-1.5h-3.4v4.7ZM235.3,124.7l1.3-.9-1.3-1.5.4-.6.9-2.6-.9-1.5-.4-3.2-2.6,2.6v6.8h1.7l.9.9ZM232.7,167.2h.9v-.9l-.9.9ZM234.4,153l.9-.9-.9-.6v1.5ZM235.7,159.1h1.7v-2.1h-2.6l.9,2.1ZM235.7,129.4h.9v-.6l-.9-.9v1.5ZM236.6,126.4h.9v-.9l-.9.9ZM237.4,70.6h.9l-.9-.9v.9ZM237.4,165.5h.9v-.9l-.9.9ZM240.6,80l.9-.9v-2.3l-.9.9v2.3ZM245.3,85.5v.6l.9-1.5,1.5-1.5-.6-.9h-2.8l1.1,3.2ZM248.5,72.1l1.1-4.3-1.1-1.9v-2.6h-1.5v5.5l1.5,3.2ZM256.3,180.4l-1.1-1.9,1.9-3.6v-3h-2.6l-1.9,1.9,1.1,3.4-1.3.9,1.9,4.3,1.9-1.9ZM253.8,188.3h1.7v-3.8h-2.8l1.1,3.8ZM253.2,84.7h2.3l.9-.9,1.9-.9-4.5-2.1-.6,3.8ZM263.4,70.6h.9v-1.7l.6-1.7h-1.5v3.4ZM263.4,82.3l.9-.9v-5.3h-.9v6.2Z"/>
        <path class="st1" d="M342.7,195.5h1.3v-5.3h-.6l-2.3,5.3-3.8.9-2.6-.9h-3.8l-1.5-.6,1.1-2.3-1.9-1.7-4.7,4.7h-2.1l-1.5-3.6-3.6,1.3-1.3,1.5-21.5,1.7v-7.9l1.5-1.3-2.1-1.3.6-1.3h-2.1v3l.9,4.5-1.7,1.9v1.5h-2.3l-1.5-1.5-.9.9h-2.8l-1.3-2.6v-.9l-.9-.6v-8.3l-2.1,1.3v7.7h-1.7l-1.7-1.3v-1.7h-.9l-2.1-3.8v-4l1.7-1.5-1.5-1.3,2.1-4.3,3.6-3.8,1.1,2.3h.9l.6-3.4,4.9-.6,10,1.7,1.1,3,1.3.9,1.9-3.6,3-1.9,1.5,2.3h.9v-3.8l-1.7-.9v-10.2l.9,1.7h.9v-1.7l2.3-2.3h-3.2l-1.5.9,1.5-3.2,1.7-1.5-.9-.9v-2.6l-.9-1.3,1.7-.9v-5.5l.6-2.6-.6-3,2.1-2.1-2.1-1.1v-.9l5.3-.6-3.8-1.5-1.5.6v-2.3l-1.7-.9v-35.5l-2.3-1.3h-14l-4.7-2.3-4.5-4.5-1.1-4.9v-4.7l.9-.9v-1.7l2.1-.6-2.8-1.1,5.3-5.3,3.8-1.5h6.2l3.4,1.1,2.1-1.1,13.4.9h10.2l4.7.6h18.1l6.4,1.7.6-.9h3.2v3.2l1.5-.9v-.9l1.7-1.5h5.5l1.5.9,3.2-.9h10l1.7,1.5.9-.6,3.8-.9,5.5.9v1.5l1.7-1.5h1.5l.6,1.5h1.7l1.3,2.6,1.1-.9v-3.2h7.4l1.9,6.2v7.9l.9.6.9-.6,1.7-.9-.9-2.3v-3l-1.1-4,2.6-1.3,2.3,2.1v6.2h2.3v.9l-1.5.9,1.7,1.9-1.1,1.1-1.5-1.5-1.1,1.9,1.1,2.1.9-.9h.6v7.7l-3.2,1.1v.6l3.2,1.1v23.2l-4,8.1-6.2,3h-1.5v-3l-.9,1.3v-2.1l.9-2.6-1.7.9-1.3,5.5h-4.9l-6.8-3.4-3.2-6.4-1.1-6,1.3-14.3-2.3-4.3-3.6-1.7-14.9-.9-18.1.9-4.5,4.5-1.3,6.2,1.3,11.3,2.1,2.3h5.5l2.3-1.5h1.9l1.1-2.6-1.3-1.3,1.7-10,3.6-3h2.3v.9l4-1.9,5.7,1.9,3.6,5.1v13.8l-1.3,11.9,1.3,9.1v15.1l-1.5,4.7-4,3.8h-5.3l-3,1.1-5.1-2.6-2.1-4.5-1.5-10.2-3.4-3.2h-3.8l-3.6,1.5-1.9,7.9-.9,10-.9.9.9.9v3.8l-1.7.9,2.6,2.3-1.7.6v2.6h.9l1.7-1.7,4.7,1.7h16.4l3.2,1.5,6.2,6.4v9.4l-2.1,4.7-1.7.9-1.9,1.9-1.9-1.1-2.6,2.1h-14.7l-5.5-.6.9-.9ZM275.1,179.8h.6v-.6l-.6.6ZM280.6,79.4v-3h-.9l.9,3ZM280.6,179.1v-.9h-.9l.9.9ZM289.1,192.3v-4.7l1.9-.9-1.9-5.5h-2.1v11.1h2.1ZM289.1,177.4v-.9h-.6l.6.9ZM298.5,192.3h.9v-.9h-.9v.9ZM301.9,192.3h3.2l-1.1-3h-.6v-3.4h4.7l.9,1.7h.6v-2.1l-2.8-1.1,2.8-3.2v-1.5l-.6-.6v2.1l-3.2,2.6v-1.7l-.9-.9.9-1.5,1.5-.6-2.6-3.6-2.1,1.1.9,1.7v4.7l.6.9-2.1,2.1-1.3,3.4,1.3,3ZM304.8,173.6l.9-1.5h-.9l-.9.6.9.9ZM309.5,124.9h1.7l-.9-.9-.9.9ZM313.6,178.3l.9-2.3,1.3-1.7-.4-.6v-4h-1.3l1.3-2.1v-4.3l.4,2.6,1.7.9v-3.4h-.9l.9-4.7-.9-1.3.9-3.2-1.7.6h-1.3l-1.3,1.3-1.3-1.3h-.6v2.6l-.9.6,1.5,1.5v15.7l1.7,3.2ZM312.7,120.2v-.9h-.9l.9.9ZM314.8,148.3l.9-.6h.9l.9-.9-1.3-2.3-3,1.9,1.7,1.9ZM314.4,159.4l-.9.9v-2.3l.9,1.5ZM315.7,161.9h-1.3l.9-.9.4.9ZM316.5,151.5v-2.1h-.9v1.5l.9.6ZM318.2,129.6h.9v-3l1.5-2.6-1.5-1.5-1.7,1.5.9,4.7v.9ZM318.2,190.2h.9v-.9l-.9.9ZM320,66.8h1.3l-.6-.6h-.6v.6ZM320,79.4h1.7l-1.1-4.7-.6.9v3.8ZM322.1,146l.9-2.1h-.9l-.9.9h-.6l-.6.6,2.1.6ZM320.6,161.9l.6-.9h-1.3l.6.9ZM321.2,159.4l.9-.9-.9-.6v1.5ZM329.3,173.6l1.5-1.5-3.2-3.4-3.8,1.7,3,1.1v2.1h2.6ZM325.3,166.6l1.5-3.4-2.3,1.5.9,1.9ZM326.1,150v-1.5h-.9v.9l.9.6ZM328.5,124v-1.5l-.9-.6-.9.6,1.7,1.5ZM326.8,161.9h.9l.9-.9-1.7.9ZM327.6,177.4h1.7l-.9-2.3-.9,2.3ZM328.5,184.7l.9-.9v-2.6l-.9-1.5-.9,2.3.9,2.6ZM328.5,63l.9-.9h-.9v.9ZM328.5,188.5l1.9-2.1-1.1-.9-.9.4v2.6ZM334.2,158.3l1.3-1.1h1.7v-1.7l2.1-2.3h-4.7l-1.5,1.5v2.6l1.1,1.1ZM334.2,193.8l1.3-.6h.9l1.3-2.6-2.6,1.1-1.1-.9-.9,2.3,1.1.6ZM336.3,189.4v-3.4l-.9-1.3-.9,4.7h1.7ZM338.5,84l.9-.6v-.9l-.9,1.5ZM341.9,176.6h1.5v-.6l-.6-.9-.9.9v.6ZM342.7,185.9l.6-.4v-1.7l-.6,2.1ZM348.9,194.9h.6l.9-.9-1.5.9ZM355.9,82.6l.6-.9v-1.5h-.6v2.3ZM356.5,196.4h1.7v-3.2h-1.7v3.2ZM358.2,66.2h.9l-.9-.9v.9ZM359.1,155.5h1.3l-1.3-2.3v2.3ZM364.6,190.2v-6.4h-1.7v4.7l1.7,1.7ZM398.2,76.4h.9v-3.4h1.5l2.3-.9v-3.8h-1.5l.6,1.7v1.7h-3v-2.6h-.9l-1.1,1.3,1.1,6ZM398.2,79.4v-1.7l-.9.9.9.9ZM402.1,99.2h1.7l1.7-.9-.9-2.6-.9,1.7-1.7,1.7ZM402.1,107.7h1.7v-2.3h-1.7v2.3ZM409.3,90.4v-6.4l-1.7-1.5h-.9l-1.3-1.5-1.7,1.5v1.9l3,1.3,1.1,4.7h1.5ZM410.2,95.7v-3.8l-2.6,1.7h-1.5v.9l2.3.4,1.7.9ZM409.3,122.6l.9-4-1.1-3.8h-2.3v5.5l-.6,1.7,3.2.6ZM409.3,101.3h.9v-.9h-.9v.9ZM414.8,103.8l.9-5.5-.9-3.8-1.7-1.7h-1.1l1.9,4.7.9,6.4ZM414.8,84l.9-.6v-.9h-1.7v.9l.9.6Z"/>
        <path class="st1" d="M478.2,192.5v-.9l-3.8-2.1-1.1,2.1h-5.1l-3.2-1.3h-2.3l-3.8-1.7-7.2-2.3-2.3-2.3-.6-1.7-.9-.6,5.5-.9.9-1.5-1.7.6h-4.7l-2.1,1.1-1.1-1.1-4.7-2.3-9.8-13.2-2.8-7.9v-1.5l-1.3-1.5-1.1-6.6,2.3-.9-4.3-4.3-1.9-20.6,1.5-19.6,3.2-14.9,4.7-9.4,3.8-4v-2.3l11.9-11.7,14.7-7.4.9,2.8,1.7-1.7v-1.9l11.7-2.8h21.3l14.5,2.8,14.5,7.4,3,3v1.7l2.1-1.1,10,12.6,4.7,8.7v3.4l.6.6v1.7l1.5-.9v1.5l.9,3.2v.9l1.5,2.8,2.3,17.7v14.7l-2.1,1.3v2.8l1.3.9v3.8l-1.3,1.7h-1.7v.9l2.6,2.1-.9.9v4.5l-5.3,14.3-2.3,2.1-1.1-1.3v-2.3l-1.5.9v1.5l-.9,1.5v2.6l-1.7,1.7h-2.3v6.4l-10.8,9.1h-1.5l-1.3-2.6-2.1.9-.6,4-3.8,1.9v-5.1h-.9l-1.7,1.7v4l-5.3,1.9-1.5-3.4-1.1,4.3h-4.5v-6.2l-.9-2.3-.9-3.8-.9.6v4l1.5,1.5-1.5,4v3h-5.3v-3.8h-.9l-1.5,3.8-8.7.9-.9-1.7-1.7.9ZM428.2,111.1l2.3-2.3v-1.7h-3.8l1.5,4ZM427.4,135.3h1.5l-.6-.9.6-.6-.6-.9v-.6h-.9v3ZM430.6,120.4v-1.7l-1.7-1.3v1.3l1.7,1.7ZM429.7,145.7h.9l-.9-.9v.9ZM431.4,97.7h.6l.9-.9h-1.5v.9ZM431.4,121.3h1.5v-1.7l-1.5,1.7ZM432.1,163.6h.9v-.9h-.9v.9ZM433.6,80.4l1.7-.9-1.7-.9v1.7ZM434.4,77.5l1.7-.9.9-.9-1.7.9-.9.9ZM437,134.5h.6v-4l-3.2,1.1v.9h.9l-.9,1.5h1.7l.9.6ZM435.3,78.1h.9l.9-.6-1.7.6ZM440.8,133.8l.9-1.5h-1.7v.6l.9.9ZM444.6,105.5h.9l-.9-.6v.6ZM445.5,172.3h1.5l-.6-.9h-.9v.9ZM446.3,112.6h1.5l2.3-1.5.9-2.3h-1.3l-1.1,2.3h-1.7v-.9l-.6.9v1.5ZM449.3,178.5v-.9h-.6l.6.9ZM451.6,61.5l2.3-1.9-3-1.1-1.3,2.1h1.3l.6.9ZM453.3,178.5l.9-.9v-2.3l.6-.9-1.5-1.3h-.9v3l.9,2.3ZM458.9,180.8l1.5-.9h-.6l-.9.9ZM491.4,164l6.6-2.1,6.4-4.5,6.4-11.1,3-15.1-1.9-28.9-5.1-13.8-6.4-6.4-6.2-3.4h-12.6l-4.9,1.3-7.2,4.3-4.7,8.5-3,11.3-.9,8.5v20.8l3.8,16.6,5.7,8.3,7,4.3,13.8,1.5ZM468.2,57.7l1.9-.9-1.1-3-2.1,2.8,1.3,1.1ZM469.7,177.7h.9v-.6l-.9.6ZM472.1,173.2v-1.7l-.6.9.6.9ZM482.5,56.8h.6l.6-.9-1.3.9ZM483.8,187l.9-1.5v-3.8l-.9-.9v-3.2l-1.3,1.7v6.2l1.3,1.5ZM483.8,190.4h.9l.9-.9-.9-.9-.9,1.7ZM498,177.7l.9-.6v-.9l-.9.9v.6ZM504.4,158.9h.9l1.3-2.3h-.9l-1.3,2.3ZM504.4,163.6l1.3-1.5h-1.3v1.5ZM506.5,187v-3.8l-2.1,2.3,2.1,1.5ZM505.7,168.9l.9-1.3v-2.6l.9-.9-1.1-1.9-1.3,4,.6,2.6ZM505.7,175.3l1.7-2.1v-1.7h-.9v1.7l-.9,1.3v.9ZM511.4,96.2h1.5v-.9h-.9l-.6.9ZM511.4,172.3l1.5-.9v.9h1.7v-3.4l-3.2,2.6v.9ZM513.8,158.1v-2.3l-1.3,2.3h1.3ZM512.9,174.5l.9-.6h-.9v.6ZM513.8,100.2h1.5l-.6-.9-.9.9ZM518.4,180.8h1.5v-3.2l-1.5,1.7v1.5ZM519.9,156.6h.9v-.9l-.9.9ZM520.8,163.6h.9l.9-.9h-1.7v.9ZM524.6,114.9h.9l1.7-1.5v-3.8l-2.6,1.1v4.3ZM524.6,175.3h.9l-.9-.9v.9ZM525.5,177.7l.9-.6h-1.7l.9.6ZM530.1,177l2.1-1.1-1.3-1.5v-2.1l-2.6-1.7-1.5,1.9,1.1,2.8v.9l2.1.9ZM529.3,152.5h1.7l-1.7-1.5v1.5ZM530.1,166.8v-.9h-.9l.9.9ZM531.8,168.5v-1.7l-.9.9.9.9ZM535.7,154.3l.9-2.8-2.3,1.1,1.5,1.7ZM535.7,164.3l.9-1.5v-3.8h-.9v2.3l-.9.9.9,2.1ZM534.8,167.7h1.7v-2.6l-1.7,2.6ZM535.7,156.6h.9v-.9h-.9v.9ZM541.8,158.1l1.1-4.7h-2.6l-.9,2.1,2.3,2.6ZM541.2,117.4h1.5v-1.7l-1.5,1.7ZM541.8,98.5l.9-1.7v-1.5h-.9v3.2ZM544.4,129.8v-.9h-.9l.9.9ZM544.4,107.9h1.5l1.5-1.7-3,1.7ZM544.4,126l.9-.9h-.9v.9ZM545.2,104.9h.6l-.6-.9v.9ZM546.5,97.7v-2.3l-1.1,1.1,1.1,1.3ZM545.9,100.6l1.5-1.3v-1.7l-1.5,3Z"/>
        <path class="st1" d="M589.7,143h-5.5v-.9l-1.5.9h-9.4v-3.8l-.9-1.7,1.3-2.6-1.3-3.6,1.1-1.1-1.3-6.8h-1.5v3.2l-1.5.9,1.5,3-.9,1.7.9,1.5-1.5,3.2-1.5.6v4.7h-4.7l-4-3.8v-12.6l.9,2.6h1.5l-.6-.9v-1.7l1.5-1.5v-5.1l2.3-1.3h15.7v4.9l2.3,2.1.6-3.8v-2.3h14.9l8.7.9h6.2l-.6,1.5v7.2l1.5,2.1h.6v-9.4h2.6l1.7,5.1-1.1,13.8-2.3,2.1-1.1-3.4,1.1-1.3v-4.5l-3,1.9v8.9h-4.7v-3.2l1.3-1.5v-1.7h-1.3v-3.8l-1.7-2.3,2.8-3.8h-1.1l-3.4,1.3h-.6v2.6l.6.9-1.9,1.1,1.9,1.9v7.9l.9.9h-12.6l-2.1-2.3-.9,1.5ZM559.9,133l1.3-3.8-1.3,1.3v2.6ZM560.8,136.8l3-2.3h-.6l-3.2,1.5.9.9ZM574.2,119.6v-.9h-.9l.9.9ZM584.2,137.4l.9-1.5h-.9v1.5ZM589.7,129.6l.9-2.6-.9-2.8.9-.9-1.7-1.5-1.1,1.1,1.1,4.5v1.3l.9.9ZM590.6,139.1l2.1-2.3,3.2-2.3-.6-.9-1.1-4.5,1.3-2.1-1.1-2.1,1.5-.6h-3.2l-.9,4,.9,1.3v4.5l-3,1.9-1.3,2.3h2.1v.9ZM595.9,133l.9-1.7h-.9v1.7ZM596.7,143h3.2v-5.5l-2.3-2.3-.9,4v3.8ZM603.7,128.3l.6-1.7h1.7l.9-.9h-3.2v2.6Z"/>
        <path class="st1" d="M632.3,192.1v-5.5l1.5-1.3-1.5-.9-1.5,1.5v4h-1.5l-4-6.4v-7.9l2.6-5.5h1.3l1.3-2.1h1.1l2.3,2.1h.9v-1.7h-.9v-.4l1.7-1.7h3.8v6.4l-.6.6,1.7,2.8-1.3,5.7h2.6v-5.3l1.7-.9v-3.8h2.1v-4.7h4v1.3l.6,3.4v3l1.7-3,.9-1.1-1.1-4.3,1.9-3.4.6-17.9.9-.9-.9-1.7.9-.9-.9-3v-26.8l.9-9.6-.9-14.5-1.7-4.7,1.1-.9h1.5v-.9l-.9-.9v-1.7l-1.5-1.5-.9-2.3h-1.7l-.6,8.5h-11.7l-3.2-2.1-1.7,1.7-2.1-.9v-6.2l-4-1.1-1.5.9-1.5-5.5,1.7-6.4,1.9-2.3,1.7.9-.9,1.7.9.9-1.7,1.3,2.6.9,2.6,1.3,3.6-2.8,2.6-.6h-4.9l.9-1.7v-6l5.3-1.1h10.2v4.5l-1.3,1.7.6.9v5.5h-1.1l1.1,3,.6-1.5.9-5.3,1.7,1.3.9,3.4,1.5-2.6-.9-4.7.9-.9-1.5-.9-.9.9h-.9v-4.7h7l2.3,2.6h2.3l2.6-2.6h11.7l1.5,1.7,3.2-1.7,11.1-.6,3,.6,9.6-.9,1.3,2.6-.6.9.6,4.7h.9l1.7-3.4,2.3-.4-3.2-.9-.9-1.7-.9-.9,1.7-.6,3.2.6h5.5v3.8l1.5,1.7,2.8-1.7-1.7-3h3l3,3-1.5.9v2.6h3.2v-5.5l5.3,2.6-2.8,5.3,3.6,1.9.9-7,7,4.3,1.5,1.5h1.7l2.1,2.6v5.3h3.4v-.6l-1.7-.9v-2.3l5.5,5.5v1.5l-1.7.6v7.2h1.7l3.2-1.7v-1.3l.9-1.1,5.7,8.7,5.1,14.9,1.5,11.1v21.1l-.9,4.7-1.3,5.5h-.9l-1.3,6.4-1.9,4.7-.9.6-1.3,4.3-3.4,4.3-2.1-3.2-1.7,1.9,1.3,2.6-1.3,1.3,1.1,2.1-3.6,3.4h-.9v-4.7h1.7v-.9l-1.7-.9v-3.8l.9-3.2v-11.7l-1.3-.9.4-1.5h1.7v-.9l.9-1.7h-2.6l-2.3-1.1-1.5,1.1,2.1,2.1-3,2.8,1.7.6,3,3-2.1,1.1v1.5h-2.6v-.6l-.6-1.7-.6-3.8-.9,2.3.9,3.8-2.6,1.3v4.3h3.8l-3-1.5,1.9-1.1,1.1-2.1,1.7.9,1.7,2.3-1.7,3v6.4h-2.3l-.9-6.4h-3l-.9,4.7h1.5v.9l-.9.9,1.7,3.2v.6l.9.9.9,1.7.6-2.6.6-.6v-1.5h1.7v8.1l-10.8,6.6-7.2,2.8-3.8-1.9-1.7,1.7h-1.5l-1.5.9,1.5,1.3h-4.7v-1.3l-1.5-.9-.9-.9-1.9,3.8h-11.5l-7-.9h-7l-.6-1.3-1.7-.9-1.5,2.6-2.3-1.3v-.4l-.9-.9v-2.6l-2.3-2.1-.9,1.3.9,1.7-1.3,1.3,1.9,1.7h-2.3l-1.5.9h-14.9l-13.8,1.1-1.9-1.9-1.7,1.7-.4-.9v-.9l-1.7-.4-.9-1.7-.9,1.7v2.1h-3l-1.7-.9h-3.8ZM633.7,182.8v-1.5l-.9-1.5.9-1.7v-5.1l-3-1.1v1.5l1.5,1.5v7.9h1.5ZM632.9,80.9l.9-1.7v-3.8h-1.5v4.7l.6.9ZM632.9,73.8l.9-1.7v-1.5l-.9,2.3v.9ZM637.8,68.3v-.9h-.9l.9.9ZM640.8,188.3l.9-2.3-1.7-.6v2.1l.9.9ZM644.6,70.6l.9-2.3-1.3-.9-.9-3h-.9l-1.1,1.9,1.1,1.1v3.2h2.1ZM645.4,185.9l.9-1.5v-3.2l.9-.9-1.1-.9,1.3-2.8-1.1-1.1v-1.5h-2.8l1.5,7.4-1.7,1.9v.9h.9l1.3,1.5ZM644.2,80h1.3l-.9-.9-.4.9ZM648.8,78.5v-2.3h-1.3l1.3,2.3ZM648.8,60.6v-3.4h-.9v2.6l.9.9ZM651,181.9l.9-.6-.9-.9v1.5ZM655,181.9h2.3v-2.1l-1.7-.9v-3.2h4.9l1.5,3.2v-7h-1.5v2.3h-2.6v-2.3l-.6-.9,1.5-3-2.3-2.6-1.5.9.6,1.7v6.2l-.6.6-2.1,4.3,1.3,1.3.9,1.5ZM653.5,189.1l2.1-.9h-2.1v.9ZM657.4,131.1v-2.3l-1.7-.6v3h1.7ZM656.5,141.3l1.5-4.7h-.6l-1.7,2.3.9,2.3ZM658.8,147.4l-1.1-1.9,2.8-2.8h-3.2l-.9,1.7,1.1,3h1.3ZM658,124.7v-3.8l-.9,2.1.9,1.7ZM659.7,190v-4.7h-1.9l1.9,4.7ZM659.9,74.9l2.8-1.1-.6-2.3,1.5-.9-1.5-1.5v-4.7l.6-2.6v-1.3l-1.5,3-1.5,1.7,1.1,2.8-1.1,1.1-.9,2.3-.9.6.9.9,1.1,1.9ZM658,85.5l.9-.9h-.9v.9ZM662,83.4l1.5-.9h2.6v-4.9l-1.3-1.1,1.3-1.3,1.1-9.4h-1.1l-2.6,7v4.7h-1.5l-.9-1.5-1.5,1.5v3.6l2.3,1.3v.9ZM665.2,88.1h.9v-3.4l-1.7-.9-.9,1.7-1.5.9,3.2.9v.9ZM662,114.7h1.5v-.9h-1.5v.9ZM665.2,158.5l1.7-1.5.6-4,1.5,5.5.9-.9v-6.2l-2.6-2.3v-.9l-1.3.9-1.1-3.8-2.3,2.1,1.7,1.7-.9,2.3v3.8l1.7,3.2ZM665.2,160.8h.9v-1.5l-.9.6v.9ZM665.2,163.8h.9v-.6h-.9v.6ZM669.1,135.7v-3h-1.7l-.4,2.1h-.9v1.9l3-1.1ZM668.2,139.8v-.9h-.9l.9.9ZM667.4,144.3l.9-.6h1.7v-2.3h-2.6v3ZM669.9,89.4l2.3-2.1h-2.3l-.9.9.9,1.3ZM671.2,86l1.7-2.6,2.6-.9-1.7-1.7,1.7-1.7v-2.1l-1.7-1.7-.9,1.7-.6-2.3v-.9h-.9l-.6,1.5.6.9v2.3l.9.6-1.5.9v3.4l-.9,1.3,1.3,1.3ZM670.8,95.7l.6-.9v-2.3l-.6.9v2.3ZM670.8,183.6h.6v-.9l-.6.9ZM671.4,70h2.3v-3.4l-2.3,2.6v.9ZM672.2,65.3h1.5v-.9l-1.5.9ZM672.2,165.5h.6v-1.7l-.6.9v.9ZM676.9,98.9v-4h-2.3v1.7l2.3,2.3ZM680.1,92.6l.6-.6v-2.6l-1.9-1.7-2.3,1.5,3.6,3.4ZM679.3,86.4h3.2l-2.3-.9-.9.9ZM679.3,107.4l.9-.9h-.9v.9ZM680.1,77l1.5-.9-.9-.9-.6,1.7ZM680.1,110.6l.6-1.5-.6-.9v2.3ZM681.6,113.8h.9l-1.7-1.7h-.6l1.5,1.7ZM684.6,107.4h.9v-2.8l-1.7,1.5.9,1.3ZM684.6,126.4l.9-1.7v-.9l-.9.9v1.7ZM686.3,91.1h.9l1.3-3.8-2.1-3.4-1.1,1.1,1.1,3.2v3ZM687.1,71.5l.9-3.2h-2.6v2.3l1.7.9ZM685.4,97.2h2.6v-1.5h-2.6v1.5ZM686.3,128.7l.9-.6v-.9h-.9l-.9.9.9.6ZM687.1,101.3v-2.3h-1.3l1.3,2.3ZM686.3,92.6h.9l.9-.6-1.7.6ZM702,168.1h.6l1.7-1.7,7.9-2.1,7-3.4,5.7-8.9,4.7-11.5,1.3-6.2.9-.9,1.1-4.9-1.5-3,2.1-4.3-.9-2.8,1.5-1.5v-4l.9-2.3-1.5-.6-2.1,1.7-2.1-6.4v-3.4l-1.3-1.5-.9-1.5-3.2-5.5-7.9-7.9-6.2-2.1-8.7-1.1,1.9-1.9-1.9-2.8h-.6l-.9,1.5-.9.9v2.6l-2.3,2.1h-3.8l-.9,1.7.9.9-.9,3.8-.9,25.1-.9-4-2.1,2.6v7h1.5v1.5h1.5l-.9,2.3,1.1,1.1-1.1,3.6v.9l-.6.9,1.1,1.1-1.1,1.3-.6,2.3,1.3.6v3.2l-.6.9-.6,1.5-1.7,1.7h1.7l1.3-1.7.9,2.6v14.7l3.2,6.4h7.9v1.7ZM689.5,110.6h.6v-1.5l-.6,1.5ZM694.2,170.2h1.5l-.6-.9v-1.3h-.9v2.1ZM696.5,62.8v-.9l-.9-.9v.9l.9.9ZM696.5,66.6h.9l-.9-2.1v2.1ZM701.2,180.4h.9l3.4-5.1-2.3-2.3-1.9,1.9v5.5ZM702,190.8h.6l-.6-.9v.9ZM703.5,70.6l.9-.6-.9-.9v1.5ZM704.4,75.3l.9-.6h-.9v.6ZM707.3,66.6h.9v-.6h-.9v.6ZM708.2,73l1.7-.9v-1.5l-1.5-1.3-1.1,2.8.9.9ZM709.1,177.4l1.7-1.7v-1.5h-1.7l-1.7,1.5,1.7,1.7ZM709.1,77h.9l-.9-.9h-.9l.9.9ZM709.5,80.4l1.3-1.3-1.3-1.1-1.3,1.1,1.3,1.3ZM709.1,191.3h2.6v-.4l-2.6-.9v1.3ZM710.8,81.7l.9-.9h-.9v.9ZM716.9,176.6l.9-2.3-.9-.9-.9,1.5.9,1.7ZM719.3,68.3v-1.7l.9-1.3h-.9l-1.1,1.9,1.1,1.1ZM726.1,71.1l2.8-2.8-1.7-.9v-.9l-.9-.6-2.6,3.8,2.3,1.3ZM733.5,74.7v-3.2l-2.6-1.3v1.9l-.9.9.9.9h1.7l.9.9ZM732.7,83.4l1.5-1.7v-2.6h-3l1.5,4.3ZM732.7,94.3h2.1l-1.3-4-2.1,3,1.3,1.1ZM731.8,101.3h2.3v-1.5l-2.3.6v.9ZM732.7,112.1v2.6l-.9.6v-2.3l.9-.9ZM738.2,136.6h.6l.9-1.7.9-.6-1.9-3.8,1.1-1.1v-3.8h-2.3v3.2l-1.3,2.1,2.1,5.7ZM737.3,153.8l1.5-.9v-3l-.6-.9v-2.6l-1.7.9v5.5l.9.9ZM738.8,144.5l1.1-4.7-2.6-.9v3l1.5,2.6ZM739.7,94.9v-.6h-.9l.9.6ZM744.4,78.5l.9-8.5-1.7-.9-1.7,1.7.9,3.8v2.3l1.7,1.5ZM753.7,89.4h3.2v-3l-1.5,1.7h-1.7v1.3ZM753.7,98.1h1.7l1.5-1.5v-4h-1.5l-.9-.6h-.9v6.2ZM755.6,104.7l1.7-3.4h-1.1l-.9,1.5-.9.9,1.1,1.1ZM759.3,154.7v-5.5l.9-1.7.6,1.7,1.7-1.7-2.3-2.1.6-.9h-1.5l-.9.9h-1.5v6.8l-.6.9,3,1.7ZM758,163.6l1.3-4.3-1.9-2.1-1.1,1.3v3.2l1.7,1.9ZM756.9,121.7h.9v-1.7l-.9.9v.9ZM760.7,131.9h1.7l.9-.9h.6v-.9h-3.2v1.7ZM762.4,92.6v-2.3h-1.3l1.3,2.3ZM763.3,102.8h.6v-.9h-.6v.9ZM764.8,118.5h1.5v-3.8l-1.5,2.3v1.5Z"/>
        <path class="st1" d="M856.1,193.8l-.9.9h-5.3l-.9-.9h-1.7l-2.1-1.1-.9,1.9-.9-.9h-7.9l-17.9-.6-3.2-1.7-1.7,1.7h-7.7v-4l1.3-2.6-3,1.5v4.7l-2.3,1.1h-4.7v-.6h1.3l1.9-4.7-.9-.9-.9-1.7h-2.1l-.9,4,1.5,1.5-2.8,3-2.8-1.3-6.4-1.1v-2.1l2.6-2.3h-1.7l-2.6,2.8-3.2-1.7-2.8-5.7v-8.7l3-6.2h3.4v-1.9l4.7-1.3h6.2l3.4,1.1,6.2-1.5,2.1-4.3.9-12.6v-11.9l1.5-3-1.1-2.3,1.9-.9,1.1-1.9-1.9-1.9h-1.5v-41.9l-4-1.3h-5.5l-.6-1.5-1.5,1.5h-5.5v-4l-2.3-.9-.9.9.9.9-.9,1.7-1.7-1.7v-6.4l-1.3-1.3-1.1,4.5-2.3-2.3v-7h1.3l-1.5-2.8,1.9-3.4h.9l1.1,3.8h1.1v-1.5l1.7-1.7v-1.5l-1.7.9v-2.3l-1.1-1.5,3.6-1.7h1.5v1.1l2.3-1.1-.9-.6h4.9v.6l-.9.9.9,9.4h1.5v-1.5l-.9-1.7.9-2.3v-4.7h2.3v1.5h.9l1.5-1.5h4v3.2l.6,1.5.9-4.7h23.4l.9.6h10.9l10-.6,8.1.6.9.9h1.7l.9-.9h3.4l-1.3,2.6-1.7,1.5h2.1l2.1-4,3,.9,1.7,1.7v3.8l.6.9-2.3,1.5,6,1.9,1.9-1.9-1.7-2.3v-2.3l-.6-.6-.9,1.5-.9-1.5,1.7-2.6,14.9,2.6,4.7,2.1,1.9,3.2,1.3-2.3,7,4.7,7.2,9.8,1.3,6.8v8.5l-.6.9.6,1.7v4.7h-3.8v1.9l3.4,1.1-3,6.4h-2.1l-.6,2.3h-2.3v3h-1.7l-1.5.9v-2.3h-2.3v4.9l-3.4,2.6,4.3,4.3,4.7,2.3,6.4,6.4v1.7l-1.3,2.1h4.3l3.2,9.4v19.8h-2.3l1.3,2.6-1.3,1.3h-2.3l1.7,2.8-2.6,5.1-7.9,7.9-2.3.6-2.3,2.6-9.8,3.8h-2.8v-1.5l-3.8.6v2.3l-6.4.9h-14.3v-4.7h-2.1v5.7l-4.7-1.1-.9-.9ZM780.7,184.5l1.7-2.3.9.9,1.3-3.8-1.3-1.7-1.7.9v3.8l-1.7,1.7.9.6ZM782.4,171.9h.9v-.9l-.9.9ZM783.3,67.7h.6v-.9l-.6.9ZM783.9,186.8l1.5-.9-1.5-1.5v2.3ZM788.6,191.5h2.3v-9.4h-2.3v9.4ZM791,73.8l1.5-3v-3.2l-.6-.9v-2.3l-1.5-2.8-1.1,2.3.9,2.1v4.7l-.6,1.5,1.5,1.5ZM789.5,60.6h.6l.9-1.5h-.9l-.6,1.5ZM797.1,183.8l.9,1.5-.9-4v2.6ZM801.2,186.8h.6l1.3-2.3h-1.9v2.3ZM804.4,183.8l.9-5.5-1.7,1.5-.9,2.3,1.7,1.7ZM809.9,161.1l.6-1.7h-1.5l.9,1.7ZM809.9,111.7l.6-.9h-.6v.9ZM811.4,133.6h1.3l1.3-3.8-1.1-1.7-2.3.6.9,1.7v1.5l.9.9-.9.9ZM811.4,139.8h1.5l-.6-.6h-.9v.6ZM819.2,136.6h.6v-2.1l-1.1-1.3-1.5,1.5,1.9,1.9ZM819.9,132.8l-1.5-11.7-.6.9v8.5l2.1,2.3ZM825.4,133.6h.9v-4l-1.9.9,1.1,3.2ZM830.9,59.2h.9v-.9h-.9v.9ZM832.7,60.6l.6-.9h-.6v.9ZM833.3,147.7v-.9h-.6l.6.9ZM833.9,130.9l1.1-.4h.6v-2.3h-.6l.9-4-2.3-.9,3-2.1v-4.7l-.9-2.6-2.3,2.6v7.7l1.1,3-1.5,2.8,1.1,1.1ZM837.1,145.3l.9-.9-.9-2.3v-1.7l-1.5-2.1-1.5,1.5,1.3,1.3-1.3,2.8,3,1.5ZM835.6,133.6h3.2v-2.6h.9v-2.3l-4,4v.9ZM835.6,149.1h.9l2.3-2.3h-1.7l-1.5,1.7v.6ZM838.8,128.1h1.7l.6-3.2h.6l1.3-1.9-3.4,1.5-.9,3.6ZM842.7,120.2l.9-2.6.9-.4v-2.6l.9-1.7-1.3-1.1,3-3,2.1,1.1.9-1.5,3,.6.9.9,1.5-.9h5.5l.9,5.5,1.7-1.7v-3.8h-.9v-.6l8.3-2.8,4-6.2v-9.1l-4.7-4.7-7.7-3.2h-11.1l-4.5,2.1-1.7,5.7v10l1.1,8.7h-1.9l-2.6,1.3v2.6l.9,1.7-1.3,4,1.3,1.5ZM841.8,132.8h1.7v-7h-1.7v7ZM856.9,168.1h11.7l5.1-2.6,5.1-7v-9.4l-3.4-6.4-6.2-3.6-2.1-1.7-19.8-3-3.6,3.6-1.7,8.9,1.9,15.7,4,4.3,8.9,1.1ZM845.2,190.8l.9.6.4-1.5.9-.9h-2.1v1.7ZM849.9,64.5l.6-.6v-.9l-.6.9v.6ZM855.2,118.1l.9-3.4-3.2-2.3-.9.6v3.8l3.2,1.3ZM854.6,64.5l1.5-.6-.9-.9-.6,1.5ZM860.7,74.7l2.6-2.3h1.3v-.6l-1.1-1.3-1.7,1.7-1.9-3.8v4l.9,2.3ZM862.4,59.2h.9l1.3-1.7-.9-.9-.4,1.7-.9.9ZM866.3,135.1v-4l3-.6-3-3.2h-1.7v4.7l-.9,1.9,2.6,1.3ZM868,61.3h.6v-.6h-.6v.6ZM868,172.8h.6l-.6-.9v.9ZM870.1,112.3v-.6l-1.5-.9v1.5h1.5ZM869.2,108.5l.9-1.7h-.9v1.7ZM871.2,136.4l2.1-1.9-1.1-5.7h-1.3v2.3l-.9,3.4,1.1,1.9ZM871.8,69.2l.9-.9h-.9v.9ZM872.6,76.4h.6l1.3-2.6h-1.3l-.6,2.6ZM872.6,139.1h.6l1.5-.9h-.6l-1.5.9ZM875.6,186.8v-2.3l-1.1,1.1,1.1,1.3ZM877.1,74.7l.9-.9v-4.7h-.9l-.9,1.1.9,4.5ZM876.5,77.2h1.5l-.9-.9h-.6v.9ZM880.3,89.4l1.5-4.5v-.9l-1.5,1.7h-1.5v2.3l1.5,1.3ZM886,185.3v-1.5h-1.7l1.7,1.5ZM885.2,110.9l.9-.9h-.9v.9ZM886,91.1h.4v-1.5h-.4v1.5ZM887.3,66.2v-4h-.9v2.3l.9,1.7ZM886.5,97.5l.9-.9.9-3-.9.9-.9,3ZM891.2,115.3l2.6-1.5v-2.8l-3.8-1.1-.9.9,1.7.9v1.3l.4,2.3ZM896,87.2l.9-2.3v-2.3h-5.5v2.3h3.8l.9,2.3ZM891.4,119.4l1.5-.9v-.9l-1.5-.4v2.1ZM892,88.1h.9l-.9-.9v.9ZM895.2,73.8h.9v-.9h-.9v.9ZM899.9,153l.9-1.5h-.9v1.5ZM900.7,164.9l.9-1.7h-.9l-.9.9.9.9ZM901.6,157.7l.9-.4v-3.4h-2.1l1.3,3.8ZM902.4,166.6h.6v-.9h-1.5l.9.9ZM903.1,87.2l1.5-.9h-1.5v.9ZM906.3,175.7h.9v-3l.9-1.7-1.7-1.5v-2.3l-.9-.6-1.1,5.5,1.9,3.6ZM909.2,88.1v-2.3l-1.9-2.3-1.5,3,2.8.9.6.9ZM910.1,165.7l1.7-3.2h1.5l.9-.6-2.8-2.8,1.3-1.9.6.4h.9v-11.7l-1.5-1.5,1.5-2.3v-2.3h-2.3v3.2h-2.6v-1.7l-1.3.9v1.7l-1.7,2.1h1.7l2.1-.9,1.1,4h-1.9v-1.5h-.6v14.9l1.5,3.2ZM907.1,109.2h.9l-.9-.6v.6ZM910.1,98.3h2.6v-3.2h-2.6v3.2ZM917.3,152.3v-.9h-.9l.9.9ZM916.5,164l2.3-2.1h-2.3v2.1Z"/>
      </g>
    </g>
  </g>
</svg>